<svg width="19" height="19" viewBox="0 0 19 19" fill="none" xmlns="http://www.w3.org/2000/svg">
<circle cx="9.4999" cy="9.49999" r="7.125" fill="#001F25"/>
<path d="M7.12496 7.91663L10.0277 10.0937C10.1766 10.2053 10.3864 10.1834 10.5089 10.0433L15.8333 3.9583" stroke="white" stroke-width="0.315577" stroke-linecap="round"/>
<path d="M16.6249 9.49999C16.6249 10.9887 16.1586 12.44 15.2914 13.6501C14.4243 14.8602 13.1999 15.7683 11.7902 16.2469C10.3804 16.7254 8.85623 16.7503 7.43162 16.3182C6.007 15.886 4.75353 15.0185 3.84725 13.8374C2.94097 12.6563 2.42742 11.221 2.37871 9.73311C2.33 8.24519 2.74858 6.77938 3.57567 5.54155C4.40276 4.30372 5.59681 3.35606 6.99011 2.83166C8.38342 2.30725 9.90599 2.23245 11.344 2.61776" stroke="white" stroke-width="0.315577" stroke-linecap="round"/>
</svg>
